<svg width="484.325px" height="122px" xmlns="http://www.w3.org/2000/svg" viewBox="7.837500000000006 14 484.325 122" style="background: rgba(0, 0, 0, 0);" preserveAspectRatio="xMidYMid"><defs><filter id="editing-extrusion" x="-100%" y="-100%" width="300%" height="300%"><feFlood result="color1" flood-color="#444"></feFlood><feConvolveMatrix order="8,8" divisor="1" kernelMatrix="1 0 0 0 0 0 0 0 0 1 0 0 0 0 0 0 0 0 1 0 0 0 0 0 0 0 0 1 0 0 0 0 0 0 0 0 1 0 0 0 0 0 0 0 0 1 0 0 0 0 0 0 0 0 1 0 0 0 0 0 0 0 0 1" in="SourceAlpha" result="extrude"></feConvolveMatrix><feComposite in="color1" in2="extrude" result="comp-extrude" operator="in"></feComposite><feOffset dx="4" dy="4" in="comp-extrude" result="offset-extrude"></feOffset><feMerge><feMergeNode in="offset-extrude"></feMergeNode><feMergeNode in="SourceGraphic"></feMergeNode></feMerge></filter></defs><g filter="url(#editing-extrusion)"><g transform="translate(80.14880096912384, 104.44000053405762)"><path d="M26.05-29.57L26.05-29.57L26.05-29.57Q27.01-31.49 27.01-33.28L27.01-33.28L27.01-33.28Q27.01-35.07 26.82-36.06L26.82-36.06L26.82-36.06Q26.62-37.06 26.18-37.82L26.18-37.82L26.18-37.82Q25.22-39.49 23.30-39.49L23.30-39.49L23.30-39.49Q20.93-39.49 19.01-37.76L19.01-37.76L19.01-37.76Q16.96-35.97 16.96-33.15L16.96-33.15L16.96-33.15Q16.96-31.36 18.21-29.98L18.21-29.98L18.21-29.98Q19.46-28.61 21.38-27.33L21.38-27.33L21.38-27.33Q23.30-26.05 25.47-24.77L25.47-24.77L25.47-24.77Q27.65-23.49 29.57-21.95L29.57-21.95L29.57-21.95Q33.98-18.43 33.98-13.70L33.98-13.70L33.98-13.70Q33.98-10.50 32.29-7.78L32.29-7.78L32.29-7.78Q30.59-5.06 27.78-3.07L27.78-3.07L27.78-3.07Q21.63 1.28 13.50 1.28L13.50 1.28L13.50 1.28Q6.91 1.28 3.52-0.86L3.52-0.86L3.52-0.86Q0.13-3.01 0.13-6.27L0.13-6.27L0.13-6.27Q0.13-12.10 4.67-13.57L4.67-13.57L4.67-13.57Q5.95-14.02 7.90-14.02L7.90-14.02L7.90-14.02Q9.86-14.02 12.10-13.18L12.10-13.18L12.10-13.18Q11.07-10.56 11.07-8.19L11.07-8.19L11.07-8.19Q11.07-3.07 14.72-3.07L14.72-3.07L14.72-3.07Q17.09-3.07 19.04-4.80L19.04-4.80L19.04-4.80Q20.99-6.53 20.99-8.48L20.99-8.48L20.99-8.48Q20.99-10.43 19.74-11.84L19.74-11.84L19.74-11.84Q18.50-13.25 16.64-14.37L16.64-14.37L16.64-14.37Q14.78-15.49 12.64-16.58L12.64-16.58L12.64-16.58Q10.50-17.66 8.64-19.20L8.64-19.20L8.64-19.20Q4.29-22.72 4.29-28.35L4.29-28.35L4.29-28.35Q4.29-32 6.08-34.85L6.08-34.85L6.08-34.85Q7.87-37.70 10.75-39.62L10.75-39.62L10.75-39.62Q16.51-43.52 23.58-43.52L23.58-43.52L23.58-43.52Q30.66-43.52 34.08-41.41L34.08-41.41L34.08-41.41Q37.50-39.30 37.50-35.71L37.50-35.71L37.50-35.71Q37.50-32.58 35.07-30.59L35.07-30.59L35.07-30.59Q32.96-28.93 30.40-28.93L30.40-28.93L30.40-28.93Q27.84-28.93 26.05-29.57ZM64.77-10.82L64.77-10.82L64.77-10.82Q66.37-9.73 66.37-7.33L66.37-7.33L66.37-7.33Q66.37-4.93 65.15-3.39L65.15-3.39L65.15-3.39Q63.94-1.86 61.95-0.83L61.95-0.83L61.95-0.83Q57.86 1.28 53.44 1.28L53.44 1.28L53.44 1.28Q49.02 1.28 46.43 0.32L46.43 0.32L46.43 0.32Q43.84-0.64 42.11-2.43L42.11-2.43L42.11-2.43Q38.72-5.82 38.72-12.03L38.72-12.03L38.72-12.03Q38.72-21.70 43.97-27.58L43.97-27.58L43.97-27.58Q49.60-33.92 59.39-33.92L59.39-33.92L59.39-33.92Q65.47-33.92 68.48-31.36L68.48-31.36L68.48-31.36Q70.72-29.44 70.72-26.30L70.72-26.30L70.72-26.30Q70.72-15.04 51.26-15.04L51.26-15.04L51.26-15.04Q51.01-13.38 51.01-11.97L51.01-11.97L51.01-11.97Q51.01-9.02 52.32-7.90L52.32-7.90L52.32-7.90Q53.63-6.78 56.06-6.78L56.06-6.78L56.06-6.78Q58.50-6.78 61.09-7.90L61.09-7.90L61.09-7.90Q63.68-9.02 64.77-10.82ZM51.71-17.79L51.71-17.79L51.71-17.79Q56.26-17.79 58.88-20.61L58.88-20.61L58.88-20.61Q61.50-23.30 61.50-27.58L61.50-27.58L61.50-27.58Q61.50-29.06 60.96-29.86L60.96-29.86L60.96-29.86Q60.42-30.66 59.33-30.66L59.33-30.66L59.33-30.66Q58.24-30.66 57.31-30.24L57.31-30.24L57.31-30.24Q56.38-29.82 55.42-28.42L55.42-28.42L55.42-28.42Q53.06-25.22 51.71-17.79ZM73.92-6.40L73.92-6.40L73.92-6.40Q73.92-8.13 74.82-12.48L74.82-12.48L78.21-29.76L74.43-29.76L74.69-31.68L74.69-31.68Q82.37-33.98 89.79-39.62L89.79-39.62L92.86-39.62L91.33-32.64L96.32-32.64L95.74-29.76L90.82-29.76L87.55-12.48L87.55-12.48Q86.72-8.51 86.72-7.17L86.72-7.17L86.72-7.17Q86.72-4.10 89.41-3.46L89.41-3.46L89.41-3.46Q88.77-1.28 86.46 0L86.46 0L86.46 0Q84.16 1.28 80.90 1.28L80.90 1.28L80.90 1.28Q77.63 1.28 75.78-0.77L75.78-0.77L75.78-0.77Q73.92-2.82 73.92-6.40ZM128.19-7.10L128.19-7.10L128.19-7.10Q128.19-4.29 131.07-3.46L131.07-3.46L131.07-3.46Q130.37-1.09 127.62 0.19L127.62 0.19L127.62 0.19Q125.31 1.28 122.78 1.28L122.78 1.28L122.78 1.28Q120.26 1.28 118.94 0.61L118.94 0.61L118.94 0.61Q117.63-0.06 116.93-1.15L116.93-1.15L116.93-1.15Q115.78-2.82 115.78-5.95L115.78-5.95L115.78-5.95Q115.78-7.81 116.80-12.93L116.80-12.93L117.70-17.79L117.70-17.79Q118.78-23.36 118.78-25.41L118.78-25.41L118.78-25.41Q118.78-28.99 116.80-28.99L116.80-28.99L116.80-28.99Q114.30-28.99 112.70-25.34L112.70-25.34L112.70-25.34Q112.06-23.94 111.62-21.82L111.62-21.82L107.26 0L94.40 1.28L103.42-44.80L116.29-46.08L115.78-43.52L115.78-43.52Q113.98-33.66 112.45-30.34L112.45-30.34L112.45-30.34Q116.03-33.92 122.62-33.92L122.62-33.92L122.62-33.92Q129.60-33.92 130.88-29.31L130.88-29.31L130.88-29.31Q131.33-27.84 131.33-26.56L131.33-26.56L131.33-26.56Q131.33-25.28 131.23-24.29L131.23-24.29L131.23-24.29Q131.14-23.30 130.82-21.50L130.82-21.50L129.98-16.90L128.51-9.66L128.51-9.66Q128.19-8.19 128.19-7.10ZM141.38 8.83L141.38 8.83L141.38 8.83Q144.64 8.45 146.69 4.22L146.69 4.22L146.69 4.22Q148.80-0.06 150.72-9.92L150.72-9.92L156.93-42.24L170.82-42.24L164.61-9.92L164.61-9.92Q162.24 2.62 158.34 7.55L158.34 7.55L158.34 7.55Q156.29 10.11 153.70 11.14L153.70 11.14L153.70 11.14Q151.10 12.16 148.29 12.16L148.29 12.16L148.29 12.16Q145.47 12.16 143.65 11.14L143.65 11.14L143.65 11.14Q141.82 10.11 141.38 8.83ZM175.01-1.92L175.01-1.92L175.01-1.92Q173.50-3.58 172.83-6.21L172.83-6.21L172.83-6.21Q172.16-8.83 172.16-13.12L172.16-13.12L172.16-13.12Q172.16-17.41 173.63-21.31L173.63-21.31L173.63-21.31Q175.10-25.22 177.79-28.03L177.79-28.03L177.79-28.03Q183.30-33.92 192.38-33.92L192.38-33.92L192.38-33.92Q195.65-33.92 198.02-32.83L198.02-32.83L208.96-33.92L204.22-8.96L204.22-8.96Q204.03-8.19 204.03-6.78L204.03-6.78L204.03-6.78Q204.03-5.38 204.90-4.48L204.90-4.48L204.90-4.48Q205.76-3.58 207.04-3.46L207.04-3.46L207.04-3.46Q206.40-1.28 204.06 0L204.06 0L204.06 0Q201.73 1.28 199.10 1.28L199.10 1.28L199.10 1.28Q196.48 1.28 194.72 0.29L194.72 0.29L194.72 0.29Q192.96-0.70 192.45-2.37L192.45-2.37L192.45-2.37Q191.42-0.77 189.25 0.26L189.25 0.26L189.25 0.26Q187.07 1.28 184.16 1.28L184.16 1.28L184.16 1.28Q181.25 1.28 178.88 0.51L178.88 0.51L178.88 0.51Q176.51-0.26 175.01-1.92ZM188.51-27.90L188.51-27.90L188.51-27.90Q187.78-26.75 187.14-24.80L187.14-24.80L187.14-24.80Q186.50-22.85 185.44-17.63L185.44-17.63L185.44-17.63Q184.38-12.42 184.38-8.70L184.38-8.70L184.38-8.70Q184.38-4.99 184.96-3.90L184.96-3.90L184.96-3.90Q185.54-2.82 186.56-2.82L186.56-2.82L186.56-2.82Q188.61-2.82 190.11-4.77L190.11-4.77L190.11-4.77Q191.62-6.72 192.19-10.18L192.19-10.18L195.58-28.93L195.58-28.93Q194.24-30.08 192.67-30.08L192.67-30.08L192.67-30.08Q191.10-30.08 190.18-29.57L190.18-29.57L190.18-29.57Q189.25-29.06 188.51-27.90ZM228.93-30.34L228.93-30.34L228.93-30.34Q232.38-33.92 239.68-33.92L239.68-33.92L239.68-33.92Q243.71-33.92 245.92-31.78L245.92-31.78L245.92-31.78Q248.13-29.63 248.13-25.70L248.13-25.70L248.13-25.70Q248.13-21.76 245.92-18.98L245.92-18.98L245.92-18.98Q243.71-16.19 239.62-15.04L239.62-15.04L239.62-15.04Q239.94-13.76 240.38-12.42L240.38-12.42L241.28-9.86L241.28-9.86Q242.50-6.59 243.46-5.44L243.46-5.44L243.46-5.44Q244.42-4.29 245.70-3.90L245.70-3.90L245.70-3.90Q244.99-1.28 242.43 0.13L242.43 0.13L242.43 0.13Q240.38 1.28 237.57 1.28L237.57 1.28L237.57 1.28Q229.31 1.28 228.22-11.46L228.22-11.46L228.22-11.46Q228.03-13.25 228.03-15.04L228.03-15.04L228.03-15.04Q231.23-15.94 233.47-18.94L233.47-18.94L233.47-18.94Q235.71-21.95 235.71-25.47L235.71-25.47L235.71-25.47Q235.71-28.99 233.22-28.99L233.22-28.99L233.22-28.99Q231.42-28.99 230.02-27.01L230.02-27.01L230.02-27.01Q228.61-25.02 227.97-21.63L227.97-21.63L223.74 0L210.82 1.28L219.78-44.80L232.64-46.08L231.17-38.46L231.17-38.46Q230.21-33.09 228.93-30.34ZM270.21-22.46L270.21-22.46L270.21-22.46Q271.10-24.83 271.10-26.88L271.10-26.88L271.10-26.88Q271.10-30.66 268.03-30.66L268.03-30.66L268.03-30.66Q266.43-30.66 265.12-29.22L265.12-29.22L265.12-29.22Q263.81-27.78 263.81-25.98L263.81-25.98L263.81-25.98Q263.81-24.70 264.83-23.68L264.83-23.68L264.83-23.68Q266.30-22.27 270.08-19.97L270.08-19.97L270.08-19.97Q273.86-17.66 275.30-15.78L275.30-15.78L275.30-15.78Q276.74-13.89 276.74-11.30L276.74-11.30L276.74-11.30Q276.74-8.70 275.49-6.34L275.49-6.34L275.49-6.34Q274.24-3.97 272-2.30L272-2.30L272-2.30Q267.20 1.28 259.52 1.28L259.52 1.28L259.52 1.28Q255.36 1.28 252.16-0.90L252.16-0.90L252.16-0.90Q248.96-3.01 248.96-5.50L248.96-5.50L248.96-5.50Q248.96-8 250.78-9.47L250.78-9.47L250.78-9.47Q252.61-10.94 255.30-10.94L255.30-10.94L255.30-10.94Q257.98-10.94 259.65-9.92L259.65-9.92L259.65-9.92Q258.82-7.81 258.82-6.40L258.82-6.40L258.82-6.40Q258.82-2.18 262.40-2.18L262.40-2.18L262.40-2.18Q263.94-2.18 264.96-3.14L264.96-3.14L264.96-3.14Q265.98-4.10 265.98-5.76L265.98-5.76L265.98-5.76Q265.98-9.02 260.48-12.48L260.48-12.48L260.48-12.48Q256-15.42 254.98-16.58L254.98-16.58L254.98-16.58Q253.25-18.62 253.25-21.18L253.25-21.18L253.25-21.18Q253.25-23.74 254.46-26.18L254.46-26.18L254.46-26.18Q255.68-28.61 257.92-30.34L257.92-30.34L257.92-30.34Q262.59-33.92 270.72-33.92L270.72-33.92L270.72-33.92Q274.88-33.92 277.34-32.26L277.34-32.26L277.34-32.26Q279.81-30.59 279.81-27.78L279.81-27.78L279.81-27.78Q279.81-24.96 278.11-23.36L278.11-23.36L278.11-23.36Q276.42-21.76 273.34-21.76L273.34-21.76L273.34-21.76Q271.23-21.76 270.21-22.46ZM297.54-3.52L297.54-3.52L297.54-3.52Q295.55 1.28 289.22 1.28L289.22 1.28L289.22 1.28Q285.95 1.28 283.90-0.96L283.90-0.96L283.90-0.96Q282.18-2.94 282.18-4.93L282.18-4.93L282.18-4.93Q282.18-10.11 284.54-20.22L284.54-20.22L286.91-32.64L299.90-33.92L296-13.70L296-13.70Q294.91-8.96 294.91-7.30L294.91-7.30L294.91-7.30Q294.91-3.65 297.54-3.52ZM288.06-41.54L288.06-41.54L288.06-41.54Q288.06-44.03 290.14-45.38L290.14-45.38L290.14-45.38Q292.22-46.72 295.23-46.72L295.23-46.72L295.23-46.72Q298.24-46.72 300.06-45.38L300.06-45.38L300.06-45.38Q301.89-44.03 301.89-41.54L301.89-41.54L301.89-41.54Q301.89-39.04 299.87-37.76L299.87-37.76L299.87-37.76Q297.86-36.48 294.85-36.48L294.85-36.48L294.85-36.48Q291.84-36.48 289.95-37.76L289.95-37.76L289.95-37.76Q288.06-39.04 288.06-41.54ZM319.49-30.34L319.49-30.34L319.49-30.34Q322.94-33.92 330.24-33.92L330.24-33.92L330.24-33.92Q334.27-33.92 336.48-31.78L336.48-31.78L336.48-31.78Q338.69-29.63 338.69-25.70L338.69-25.70L338.69-25.70Q338.69-21.76 336.48-18.98L336.48-18.98L336.48-18.98Q334.27-16.19 330.18-15.04L330.18-15.04L330.18-15.04Q330.50-13.76 330.94-12.42L330.94-12.42L331.84-9.86L331.84-9.86Q333.06-6.59 334.02-5.44L334.02-5.44L334.02-5.44Q334.98-4.29 336.26-3.90L336.26-3.90L336.26-3.90Q335.55-1.28 332.99 0.13L332.99 0.13L332.99 0.13Q330.94 1.28 328.13 1.28L328.13 1.28L328.13 1.28Q319.87 1.28 318.78-11.46L318.78-11.46L318.78-11.46Q318.59-13.25 318.59-15.04L318.59-15.04L318.59-15.04Q321.79-15.94 324.03-18.94L324.03-18.94L324.03-18.94Q326.27-21.95 326.27-25.47L326.27-25.47L326.27-25.47Q326.27-28.99 323.78-28.99L323.78-28.99L323.78-28.99Q321.98-28.99 320.58-27.01L320.58-27.01L320.58-27.01Q319.17-25.02 318.53-21.63L318.53-21.63L314.30 0L301.38 1.28L310.34-44.80L323.20-46.08L321.73-38.46L321.73-38.46Q320.77-33.09 319.49-30.34Z" fill="#ccc"></path></g></g><style>text {
  font-size: 64px;
  font-family: Arial Black;
  dominant-baseline: central;
  text-anchor: middle;
}</style></svg>