<svg width="658.00625px" height="159.2px" xmlns="http://www.w3.org/2000/svg" viewBox="-79.00312500000001 -4.599999999999994 658.00625 159.2" style="background: rgba(0, 0, 0, 0);" preserveAspectRatio="xMidYMid"><defs><filter id="editing-extrusion" x="-100%" y="-100%" width="300%" height="300%"><feFlood result="color1" flood-color="#667395"></feFlood><feConvolveMatrix order="8,8" divisor="1" kernelMatrix="1 0 0 0 0 0 0 0 0 1 0 0 0 0 0 0 0 0 1 0 0 0 0 0 0 0 0 1 0 0 0 0 0 0 0 0 1 0 0 0 0 0 0 0 0 1 0 0 0 0 0 0 0 0 1 0 0 0 0 0 0 0 0 1" in="SourceAlpha" result="extrude"></feConvolveMatrix><feComposite in="color1" in2="extrude" result="comp-extrude" operator="in"></feComposite><feOffset dx="4" dy="4" in="comp-extrude" result="offset-extrude"></feOffset><feMerge><feMergeNode in="offset-extrude"></feMergeNode><feMergeNode in="SourceGraphic"></feMergeNode></feMerge></filter></defs><g filter="url(#editing-extrusion)"><g transform="translate(16.618801414966583, 115.48000144958496)"><path d="M35.82-40.66L35.82-40.66L35.82-40.66Q37.14-43.30 37.14-45.76L37.14-45.76L37.14-45.76Q37.14-48.22 36.87-49.59L36.87-49.59L36.87-49.59Q36.61-50.95 35.99-52.01L35.99-52.01L35.99-52.01Q34.67-54.30 32.03-54.30L32.03-54.30L32.03-54.30Q28.78-54.30 26.14-51.92L26.14-51.92L26.14-51.92Q23.32-49.46 23.32-45.58L23.32-45.58L23.32-45.58Q23.32-43.12 25.04-41.23L25.04-41.23L25.04-41.23Q26.75-39.34 29.39-37.58L29.39-37.58L29.39-37.58Q32.03-35.82 35.02-34.06L35.02-34.06L35.02-34.06Q38.02-32.30 40.66-30.18L40.66-30.18L40.66-30.18Q46.73-25.34 46.73-18.83L46.73-18.83L46.73-18.83Q46.73-14.43 44.40-10.69L44.40-10.69L44.40-10.69Q42.06-6.95 38.19-4.22L38.19-4.22L38.19-4.22Q29.74 1.76 18.57 1.76L18.57 1.76L18.57 1.76Q9.50 1.76 4.84-1.19L4.84-1.19L4.84-1.19Q0.18-4.14 0.18-8.62L0.18-8.62L0.18-8.62Q0.18-16.63 6.42-18.66L6.42-18.66L6.42-18.66Q8.18-19.27 10.87-19.27L10.87-19.27L10.87-19.27Q13.55-19.27 16.63-18.13L16.63-18.13L16.63-18.13Q15.22-14.52 15.22-11.26L15.22-11.26L15.22-11.26Q15.22-4.22 20.24-4.22L20.24-4.22L20.24-4.22Q23.50-4.22 26.18-6.60L26.18-6.60L26.18-6.60Q28.86-8.98 28.86-11.66L28.86-11.66L28.86-11.66Q28.86-14.34 27.15-16.28L27.15-16.28L27.15-16.28Q25.43-18.22 22.88-19.76L22.88-19.76L22.88-19.76Q20.33-21.30 17.38-22.79L17.38-22.79L17.38-22.79Q14.43-24.29 11.88-26.40L11.88-26.40L11.88-26.40Q5.90-31.24 5.90-38.98L5.90-38.98L5.90-38.98Q5.90-44 8.36-47.92L8.36-47.92L8.36-47.92Q10.82-51.83 14.78-54.47L14.78-54.47L14.78-54.47Q22.70-59.84 32.43-59.84L32.43-59.84L32.43-59.84Q42.15-59.84 46.86-56.94L46.86-56.94L46.86-56.94Q51.57-54.03 51.57-49.10L51.57-49.10L51.57-49.10Q51.57-44.79 48.22-42.06L48.22-42.06L48.22-42.06Q45.32-39.78 41.80-39.78L41.80-39.78L41.80-39.78Q38.28-39.78 35.82-40.66ZM89.06-14.87L89.06-14.87L89.06-14.87Q91.26-13.38 91.26-10.08L91.26-10.08L91.26-10.08Q91.26-6.78 89.58-4.66L89.58-4.66L89.58-4.66Q87.91-2.55 85.18-1.14L85.18-1.14L85.18-1.14Q79.55 1.76 73.48 1.76L73.48 1.76L73.48 1.76Q67.41 1.76 63.84 0.44L63.84 0.44L63.84 0.44Q60.28-0.88 57.90-3.34L57.90-3.34L57.90-3.34Q53.24-8.01 53.24-16.54L53.24-16.54L53.24-16.54Q53.24-29.83 60.46-37.93L60.46-37.93L60.46-37.93Q68.20-46.64 81.66-46.64L81.66-46.64L81.66-46.64Q90.02-46.64 94.16-43.12L94.16-43.12L94.16-43.12Q97.24-40.48 97.24-36.17L97.24-36.17L97.24-36.17Q97.24-20.68 70.49-20.68L70.49-20.68L70.49-20.68Q70.14-18.39 70.14-16.46L70.14-16.46L70.14-16.46Q70.14-12.41 71.94-10.87L71.94-10.87L71.94-10.87Q73.74-9.33 77.09-9.33L77.09-9.33L77.09-9.33Q80.43-9.33 84.00-10.87L84.00-10.87L84.00-10.87Q87.56-12.41 89.06-14.87ZM71.10-24.46L71.10-24.46L71.10-24.46Q77.35-24.46 80.96-28.34L80.96-28.34L80.96-28.34Q84.57-32.03 84.57-37.93L84.57-37.93L84.57-37.93Q84.57-39.95 83.82-41.05L83.82-41.05L83.82-41.05Q83.07-42.15 81.58-42.15L81.58-42.15L81.58-42.15Q80.08-42.15 78.80-41.58L78.80-41.58L78.80-41.58Q77.53-41.01 76.21-39.07L76.21-39.07L76.21-39.07Q72.95-34.67 71.10-24.46ZM101.64-8.80L101.64-8.80L101.64-8.80Q101.64-11.18 102.87-17.16L102.87-17.16L107.54-40.92L102.34-40.92L102.70-43.56L102.70-43.56Q113.26-46.73 123.46-54.47L123.46-54.47L127.69-54.47L125.58-44.88L132.44-44.88L131.65-40.92L124.87-40.92L120.38-17.16L120.38-17.16Q119.24-11.70 119.24-9.86L119.24-9.86L119.24-9.86Q119.24-5.63 122.94-4.75L122.94-4.75L122.94-4.75Q122.06-1.76 118.89 0L118.89 0L118.89 0Q115.72 1.76 111.23 1.76L111.23 1.76L111.23 1.76Q106.74 1.76 104.19-1.06L104.19-1.06L104.19-1.06Q101.64-3.87 101.64-8.80ZM176.26-9.77L176.26-9.77L176.26-9.77Q176.26-5.90 180.22-4.75L180.22-4.75L180.22-4.75Q179.26-1.50 175.47 0.26L175.47 0.26L175.47 0.26Q172.30 1.76 168.83 1.76L168.83 1.76L168.83 1.76Q165.35 1.76 163.55 0.84L163.55 0.84L163.55 0.84Q161.74-0.09 160.78-1.58L160.78-1.58L160.78-1.58Q159.19-3.87 159.19-8.18L159.19-8.18L159.19-8.18Q159.19-10.74 160.60-17.78L160.60-17.78L161.83-24.46L161.83-24.46Q163.33-32.12 163.33-34.94L163.33-34.94L163.33-34.94Q163.33-39.86 160.60-39.86L160.60-39.86L160.60-39.86Q157.17-39.86 154.97-34.85L154.97-34.85L154.97-34.85Q154.09-32.91 153.47-30.01L153.47-30.01L147.49 0L129.80 1.76L142.21-61.60L159.90-63.36L159.19-59.84L159.19-59.84Q156.73-46.29 154.62-41.71L154.62-41.71L154.62-41.71Q159.54-46.64 168.61-46.64L168.61-46.64L168.61-46.64Q178.20-46.64 179.96-40.30L179.96-40.30L179.96-40.30Q180.58-38.28 180.58-36.52L180.58-36.52L180.58-36.52Q180.58-34.76 180.44-33.40L180.44-33.40L180.44-33.40Q180.31-32.03 179.87-29.57L179.87-29.57L178.73-23.23L176.70-13.29L176.70-13.29Q176.26-11.26 176.26-9.77ZM194.39 12.14L194.39 12.14L194.39 12.14Q198.88 11.62 201.70 5.81L201.70 5.81L201.70 5.81Q204.60-0.09 207.24-13.64L207.24-13.64L215.78-58.08L234.87-58.08L226.34-13.64L226.34-13.64Q223.08 3.61 217.71 10.38L217.71 10.38L217.71 10.38Q214.90 13.90 211.33 15.31L211.33 15.31L211.33 15.31Q207.77 16.72 203.90 16.72L203.90 16.72L203.90 16.72Q200.02 16.72 197.52 15.31L197.52 15.31L197.52 15.31Q195.01 13.90 194.39 12.14ZM240.64-2.64L240.64-2.64L240.64-2.64Q238.57-4.93 237.64-8.54L237.64-8.54L237.64-8.54Q236.72-12.14 236.72-18.04L236.72-18.04L236.72-18.04Q236.72-23.94 238.74-29.30L238.74-29.30L238.74-29.30Q240.77-34.67 244.46-38.54L244.46-38.54L244.46-38.54Q252.03-46.64 264.53-46.64L264.53-46.64L264.53-46.64Q269.02-46.64 272.27-45.14L272.27-45.14L287.32-46.64L280.81-12.32L280.81-12.32Q280.54-11.26 280.54-9.33L280.54-9.33L280.54-9.33Q280.54-7.39 281.73-6.16L281.73-6.16L281.73-6.16Q282.92-4.93 284.68-4.75L284.68-4.75L284.68-4.75Q283.80-1.76 280.59 0L280.59 0L280.59 0Q277.38 1.76 273.77 1.76L273.77 1.76L273.77 1.76Q270.16 1.76 267.74 0.40L267.74 0.40L267.74 0.40Q265.32-0.97 264.62-3.26L264.62-3.26L264.62-3.26Q263.21-1.06 260.22 0.35L260.22 0.35L260.22 0.35Q257.22 1.76 253.22 1.76L253.22 1.76L253.22 1.76Q249.22 1.76 245.96 0.70L245.96 0.70L245.96 0.70Q242.70-0.35 240.64-2.64ZM259.20-38.37L259.20-38.37L259.20-38.37Q258.19-36.78 257.31-34.10L257.31-34.10L257.31-34.10Q256.43-31.42 254.98-24.24L254.98-24.24L254.98-24.24Q253.53-17.07 253.53-11.97L253.53-11.97L253.53-11.97Q253.53-6.86 254.32-5.37L254.32-5.37L254.32-5.37Q255.11-3.87 256.52-3.87L256.52-3.87L256.52-3.87Q259.34-3.87 261.40-6.56L261.40-6.56L261.40-6.56Q263.47-9.24 264.26-13.99L264.26-13.99L268.93-39.78L268.93-39.78Q267.08-41.36 264.92-41.36L264.92-41.36L264.92-41.36Q262.77-41.36 261.49-40.66L261.49-40.66L261.49-40.66Q260.22-39.95 259.20-38.37ZM314.78-41.71L314.78-41.71L314.78-41.71Q319.53-46.64 329.56-46.64L329.56-46.64L329.56-46.64Q335.10-46.64 338.14-43.69L338.14-43.69L338.14-43.69Q341.18-40.74 341.18-35.33L341.18-35.33L341.18-35.33Q341.18-29.92 338.14-26.09L338.14-26.09L338.14-26.09Q335.10-22.26 329.47-20.68L329.47-20.68L329.47-20.68Q329.91-18.92 330.53-17.07L330.53-17.07L331.76-13.55L331.76-13.55Q333.43-9.06 334.75-7.48L334.75-7.48L334.75-7.48Q336.07-5.90 337.83-5.37L337.83-5.37L337.83-5.37Q336.86-1.76 333.34 0.18L333.34 0.18L333.34 0.18Q330.53 1.76 326.66 1.76L326.66 1.76L326.66 1.76Q315.30 1.76 313.81-15.75L313.81-15.75L313.81-15.75Q313.54-18.22 313.54-20.68L313.54-20.68L313.54-20.68Q317.94-21.91 321.02-26.05L321.02-26.05L321.02-26.05Q324.10-30.18 324.10-35.02L324.10-35.02L324.10-35.02Q324.10-39.86 320.67-39.86L320.67-39.86L320.67-39.86Q318.21-39.86 316.27-37.14L316.27-37.14L316.27-37.14Q314.34-34.41 313.46-29.74L313.46-29.74L307.65 0L289.87 1.76L302.19-61.60L319.88-63.36L317.86-52.89L317.86-52.89Q316.54-45.50 314.78-41.71ZM371.54-30.89L371.54-30.89L371.54-30.89Q372.77-34.14 372.77-36.96L372.77-36.96L372.77-36.96Q372.77-42.15 368.54-42.15L368.54-42.15L368.54-42.15Q366.34-42.15 364.54-40.17L364.54-40.17L364.54-40.17Q362.74-38.19 362.74-35.73L362.74-35.73L362.74-35.73Q362.74-33.97 364.14-32.56L364.14-32.56L364.14-32.56Q366.17-30.62 371.36-27.46L371.36-27.46L371.36-27.46Q376.55-24.29 378.53-21.69L378.53-21.69L378.53-21.69Q380.51-19.10 380.51-15.53L380.51-15.53L380.51-15.53Q380.51-11.97 378.80-8.71L378.80-8.71L378.80-8.71Q377.08-5.46 374.00-3.17L374.00-3.17L374.00-3.17Q367.40 1.76 356.84 1.76L356.84 1.76L356.84 1.76Q351.12 1.76 346.72-1.23L346.72-1.23L346.72-1.23Q342.32-4.14 342.32-7.57L342.32-7.57L342.32-7.57Q342.32-11 344.83-13.02L344.83-13.02L344.83-13.02Q347.34-15.05 351.03-15.05L351.03-15.05L351.03-15.05Q354.73-15.05 357.02-13.64L357.02-13.64L357.02-13.64Q355.87-10.74 355.87-8.80L355.87-8.80L355.87-8.80Q355.87-2.99 360.80-2.99L360.80-2.99L360.80-2.99Q362.91-2.99 364.32-4.31L364.32-4.31L364.32-4.31Q365.73-5.63 365.73-7.92L365.73-7.92L365.73-7.92Q365.73-12.41 358.16-17.16L358.16-17.16L358.16-17.16Q352.00-21.21 350.59-22.79L350.59-22.79L350.59-22.79Q348.22-25.61 348.22-29.13L348.22-29.13L348.22-29.13Q348.22-32.65 349.89-35.99L349.89-35.99L349.89-35.99Q351.56-39.34 354.64-41.71L354.64-41.71L354.64-41.71Q361.06-46.64 372.24-46.64L372.24-46.64L372.24-46.64Q377.96-46.64 381.35-44.35L381.35-44.35L381.35-44.35Q384.74-42.06 384.74-38.19L384.74-38.19L384.74-38.19Q384.74-34.32 382.40-32.12L382.40-32.12L382.40-32.12Q380.07-29.92 375.85-29.92L375.85-29.92L375.85-29.92Q372.94-29.92 371.54-30.89ZM409.11-4.84L409.11-4.84L409.11-4.84Q406.38 1.76 397.67 1.76L397.67 1.76L397.67 1.76Q393.18 1.76 390.37-1.32L390.37-1.32L390.37-1.32Q387.99-4.05 387.99-6.78L387.99-6.78L387.99-6.78Q387.99-13.90 391.25-27.81L391.25-27.81L394.50-44.88L412.37-46.64L407-18.83L407-18.83Q405.50-12.32 405.50-10.03L405.50-10.03L405.50-10.03Q405.50-5.02 409.11-4.84ZM396.09-57.11L396.09-57.11L396.09-57.11Q396.09-60.54 398.95-62.39L398.95-62.39L398.95-62.39Q401.81-64.24 405.94-64.24L405.94-64.24L405.94-64.24Q410.08-64.24 412.59-62.39L412.59-62.39L412.59-62.39Q415.10-60.54 415.10-57.11L415.10-57.11L415.10-57.11Q415.10-53.68 412.32-51.92L412.32-51.92L412.32-51.92Q409.55-50.16 405.42-50.16L405.42-50.16L405.42-50.16Q401.28-50.16 398.68-51.92L398.68-51.92L398.68-51.92Q396.09-53.68 396.09-57.11ZM439.30-41.71L439.30-41.71L439.30-41.71Q444.05-46.64 454.08-46.64L454.08-46.64L454.08-46.64Q459.62-46.64 462.66-43.69L462.66-43.69L462.66-43.69Q465.70-40.74 465.70-35.33L465.70-35.33L465.70-35.33Q465.70-29.92 462.66-26.09L462.66-26.09L462.66-26.09Q459.62-22.26 453.99-20.68L453.99-20.68L453.99-20.68Q454.43-18.92 455.05-17.07L455.05-17.07L456.28-13.55L456.28-13.55Q457.95-9.06 459.27-7.48L459.27-7.48L459.27-7.48Q460.59-5.90 462.35-5.37L462.35-5.37L462.35-5.37Q461.38-1.76 457.86 0.18L457.86 0.18L457.86 0.18Q455.05 1.76 451.18 1.76L451.18 1.76L451.18 1.76Q439.82 1.76 438.33-15.75L438.33-15.75L438.33-15.75Q438.06-18.22 438.06-20.68L438.06-20.68L438.06-20.68Q442.46-21.91 445.54-26.05L445.54-26.05L445.54-26.05Q448.62-30.18 448.62-35.02L448.62-35.02L448.62-35.02Q448.62-39.86 445.19-39.86L445.19-39.86L445.19-39.86Q442.73-39.86 440.79-37.14L440.79-37.14L440.79-37.14Q438.86-34.41 437.98-29.74L437.98-29.74L432.17 0L414.39 1.76L426.71-61.60L444.40-63.36L442.38-52.89L442.38-52.89Q441.06-45.50 439.30-41.71Z" fill="#94a9ce"></path></g></g><style>text {
  font-size: 64px;
  font-family: Arial Black;
  dominant-baseline: central;
  text-anchor: middle;
}</style></svg>